<?xml version="1.0" standalone="no"?>
<!DOCTYPE svg PUBLIC "-//W3C//DTD SVG 20010904//EN"
 "http://www.w3.org/TR/2001/REC-SVG-20010904/DTD/svg10.dtd">
<svg version="1.0" xmlns="http://www.w3.org/2000/svg"
 width="512.000000pt" height="512.000000pt" viewBox="0 0 512.000000 512.000000"
 preserveAspectRatio="xMidYMid meet">

<g transform="translate(0.000000,512.000000) scale(0.100000,-0.100000)"
fill="#000000" stroke="none">
<path d="M2661 4604 c0 -11 3 -14 6 -6 3 7 2 16 -1 19 -3 4 -6 -2 -5 -13z"/>
<path d="M2390 4588 c-69 -19 -118 -89 -106 -152 13 -71 73 -116 153 -116 114
0 190 114 131 199 -44 65 -107 89 -178 69z m70 -43 c0 -14 6 -25 14 -25 24 0
66 -41 66 -65 0 -24 -42 -65 -66 -65 -8 0 -14 -4 -14 -10 0 -5 7 -10 15 -10 8
0 15 -4 15 -8 0 -5 -26 -9 -57 -10 -51 -2 -56 0 -40 12 20 16 22 26 3 26 -24
0 -66 41 -66 64 0 24 22 48 53 59 21 8 21 3 1 -29 -14 -20 -15 -30 -6 -49 20
-43 32 -28 32 39 0 53 -3 65 -17 69 -12 2 -7 7 17 14 50 16 50 16 50 -12z"/>
<path d="M2460 4455 c0 -46 7 -54 28 -33 22 22 8 78 -20 78 -4 0 -8 -20 -8
-45z"/>
<path d="M2428 4403 c7 -3 16 -2 19 1 4 3 -2 6 -13 5 -11 0 -14 -3 -6 -6z"/>
<path d="M2731 4573 c-1 -18 4 -33 9 -33 12 0 12 17 0 45 -7 17 -9 15 -9 -12z"/>
<path d="M2760 4570 c0 -23 4 -30 20 -30 11 0 20 5 20 10 0 6 -5 10 -11 10 -5
0 -7 5 -4 10 3 6 0 10 -7 10 -9 0 -9 3 2 10 13 8 12 10 -2 10 -13 0 -18 -8
-18 -30z"/>
<path d="M2804 4578 c3 -13 6 -26 6 -30 0 -12 30 -9 30 2 0 6 -6 10 -12 10 -9
0 -8 4 2 10 13 9 13 10 0 10 -13 0 -13 1 0 10 12 8 10 10 -9 10 -19 0 -22 -4
-17 -22z"/>
<path d="M2850 4570 c0 -32 6 -36 30 -20 13 9 13 10 0 10 -13 0 -13 1 0 10 13
9 13 10 0 10 -13 0 -13 1 0 10 12 8 11 10 -7 10 -19 0 -23 -6 -23 -30z"/>
<path d="M2651 4554 c0 -11 3 -14 6 -6 3 7 2 16 -1 19 -3 4 -6 -2 -5 -13z"/>
<path d="M3210 4490 c0 -39 1 -40 33 -39 23 1 26 3 10 6 -27 5 -31 23 -5 24
12 0 10 3 -8 12 l-25 11 28 4 c37 5 35 22 -3 22 -28 0 -30 -2 -30 -40z"/>
<path d="M3280 4490 c0 -38 13 -54 23 -27 4 10 7 10 18 0 20 -19 24 -16 25 20
2 35 -9 47 -43 47 -20 0 -23 -5 -23 -40z m50 10 c0 -5 -7 -10 -15 -10 -8 0
-15 5 -15 10 0 6 7 10 15 10 8 0 15 -4 15 -10z"/>
<path d="M2642 4500 c0 -14 2 -19 5 -12 2 6 2 18 0 25 -3 6 -5 1 -5 -13z"/>
<path d="M2870 4480 c0 -22 5 -40 10 -40 6 0 10 10 10 23 1 20 2 20 11 5 5
-10 14 -18 19 -18 5 0 11 8 13 18 4 13 5 11 6 -5 2 -40 21 -24 21 17 0 46 -15
52 -32 14 l-12 -25 -13 25 c-20 38 -33 32 -33 -14z"/>
<path d="M2980 4481 c0 -23 5 -41 10 -41 6 0 10 4 10 9 0 5 9 13 21 16 31 10
21 49 -13 53 -27 3 -28 1 -28 -37z m40 9 c0 -5 -4 -10 -9 -10 -6 0 -13 5 -16
10 -3 6 1 10 9 10 9 0 16 -4 16 -10z"/>
<path d="M3050 4491 c0 -35 22 -55 50 -46 15 5 20 15 20 41 0 19 -4 34 -10 34
-5 0 -10 -13 -10 -30 0 -20 -5 -30 -15 -30 -10 0 -15 10 -15 30 0 17 -4 30
-10 30 -5 0 -10 -13 -10 -29z"/>
<path d="M3142 4508 c9 -7 19 -24 21 -38 4 -21 4 -20 6 7 1 21 7 33 19 36 9 3
-1 5 -22 6 -34 1 -37 -1 -24 -11z"/>
<path d="M2707 4503 c-12 -12 -7 -50 8 -63 12 -10 21 -10 38 -2 21 10 21 11
-6 11 -24 1 -28 5 -25 24 2 16 9 21 26 20 13 -2 21 1 17 7 -7 11 -48 14 -58 3z"/>
<path d="M2787 4503 c-14 -13 -6 -53 12 -63 36 -19 68 11 56 51 -6 19 -54 27
-68 12z m51 -26 c4 -21 -27 -35 -38 -17 -12 19 0 42 19 38 9 -2 17 -11 19 -21z"/>
<path d="M2631 4444 c0 -11 3 -14 6 -6 3 7 2 16 -1 19 -3 4 -6 -2 -5 -13z"/>
<path d="M2622 4390 c0 -14 2 -19 5 -12 2 6 2 18 0 25 -3 6 -5 1 -5 -13z"/>
<path d="M2857 4398 c-22 -12 -22 -55 1 -66 19 -10 42 -5 42 9 0 4 -7 6 -16 2
-19 -7 -35 14 -27 34 3 8 14 13 24 10 11 -3 19 -2 19 3 0 13 -25 18 -43 8z"/>
<path d="M2920 4371 c0 -23 5 -41 10 -41 6 0 10 15 10 34 0 19 -4 38 -10 41
-6 4 -10 -10 -10 -34z"/>
<path d="M2954 4388 c3 -13 6 -31 6 -40 0 -14 8 -18 33 -17 30 2 30 2 5 6 -32
5 -38 23 -8 23 27 0 25 18 -2 23 l-23 4 23 2 c34 2 26 21 -9 21 -28 0 -31 -3
-25 -22z"/>
<path d="M3020 4400 c0 -5 7 -10 15 -10 10 0 15 -10 15 -30 0 -16 5 -30 11
-30 6 0 8 11 4 29 -5 23 -2 29 14 34 16 4 23 -2 33 -29 6 -19 15 -34 18 -34 7
0 30 74 24 79 -2 3 -10 -4 -17 -14 -13 -16 -14 -16 -20 -1 -5 11 -19 16 -52
16 -25 0 -45 -4 -45 -10z"/>
<path d="M2687 4393 c-13 -13 -7 -30 16 -41 l22 -11 -22 0 c-13 -1 -23 -6 -23
-12 0 -6 12 -9 27 -7 34 4 43 33 14 43 -12 3 -21 10 -21 15 0 5 7 7 15 4 8 -4
15 -1 15 5 0 12 -32 15 -43 4z"/>
<path d="M2757 4393 c-12 -12 -7 -50 8 -63 35 -29 85 26 53 58 -13 13 -50 16
-61 5z m51 -31 c3 -16 -2 -22 -16 -22 -24 0 -35 23 -19 39 16 16 31 8 35 -17z"/>
<path d="M1430 4325 c0 -43 1 -45 30 -45 17 0 30 5 30 10 0 6 -9 10 -20 10
-25 0 -26 17 -2 23 16 4 16 5 0 6 -25 1 -22 21 3 21 11 0 17 5 14 10 -3 6 -17
10 -31 10 -22 0 -24 -4 -24 -45z"/>
<path d="M1510 4325 c0 -43 1 -45 30 -45 38 0 40 17 3 22 l-28 4 24 10 25 11
-25 8 -24 8 28 4 c33 5 26 23 -9 23 -22 0 -24 -4 -24 -45z"/>
<path d="M1584 4356 c-3 -8 -4 -27 -2 -43 2 -21 9 -29 27 -31 13 -2 28 1 34 7
8 8 3 11 -16 11 -32 0 -37 20 -4 21 21 0 21 1 -3 12 l-25 11 28 4 c15 2 25 8
22 13 -9 14 -55 11 -61 -5z"/>
<path d="M1706 4354 c-9 -8 -16 -22 -16 -29 0 -17 27 -45 43 -45 16 0 45 19
32 21 -5 1 -19 2 -30 3 -34 2 -26 40 10 46 25 5 27 7 12 13 -27 10 -34 9 -51
-9z"/>
<path d="M1784 4355 c-7 -18 3 -35 22 -35 8 0 14 -4 14 -10 0 -5 -10 -10 -22
-10 -20 -1 -21 -2 -6 -10 9 -6 23 -7 32 -4 24 9 19 41 -6 49 l-23 8 23 4 c12
2 20 9 17 14 -9 14 -45 11 -51 -6z"/>
<path d="M1390 4320 c0 -22 5 -40 10 -40 6 0 10 18 10 40 0 22 -4 40 -10 40
-5 0 -10 -18 -10 -40z"/>
<path d="M2612 4340 c0 -14 2 -19 5 -12 2 6 2 18 0 25 -3 6 -5 1 -5 -13z"/>
<path d="M2555 4320 c-3 -5 -1 -10 4 -10 6 0 11 5 11 10 0 6 -2 10 -4 10 -3 0
-8 -4 -11 -10z"/>
<path d="M2852 4260 c2 -5 27 -27 56 -49 53 -39 54 -39 83 -23 16 10 29 19 29
22 0 3 -20 17 -44 33 -42 27 -132 39 -124 17z"/>
<path d="M1387 4253 c-4 -3 -7 -12 -7 -20 0 -9 17 -13 65 -13 l65 0 0 -78 c0
-81 9 -102 42 -102 16 0 18 10 18 90 l0 90 60 0 c53 0 60 2 60 20 0 19 -7 20
-148 20 -82 0 -152 -3 -155 -7z"/>
<path d="M1760 4240 c0 -19 7 -20 150 -20 143 0 150 1 150 20 0 19 -7 20 -150
20 -143 0 -150 -1 -150 -20z"/>
<path d="M2132 4244 c-19 -13 -22 -24 -22 -90 0 -108 8 -114 156 -114 109 0
154 9 154 30 0 6 -50 10 -120 10 l-120 0 0 70 0 70 120 0 c117 0 142 7 101 30
-33 17 -243 13 -269 -6z"/>
<path d="M2480 4150 l0 -110 30 0 c29 0 30 2 30 45 l0 45 89 0 c96 0 100 -3
101 -68 0 -20 5 -23 28 -20 l27 3 3 108 3 107 -36 0 c-35 0 -35 0 -35 -45 l0
-46 -87 3 -88 3 -3 43 c-3 39 -5 42 -33 42 l-29 0 0 -110z"/>
<path d="M1760 4110 l0 -70 150 0 c143 0 150 1 150 20 0 19 -7 20 -115 20
l-115 0 0 35 0 35 65 0 c51 0 65 3 65 15 0 12 -18 15 -100 15 l-100 0 0 -70z"/>
<path d="M3062 4131 l-22 -19 50 -37 c44 -32 55 -36 102 -33 l53 3 -70 52
c-38 29 -74 52 -80 52 -5 0 -20 -8 -33 -18z"/>
<path d="M2476 3997 c-65 -36 -79 -118 -32 -189 15 -23 62 -53 77 -50 4 1 7
-62 7 -138 l1 -140 -27 -1 c-87 -4 -126 -10 -167 -24 -25 -8 -54 -15 -65 -15
-10 0 -22 -4 -25 -10 -15 -24 -70 -10 -110 28 -22 21 -58 51 -80 67 -43 32
-127 98 -186 147 -20 16 -67 51 -105 78 -38 27 -74 54 -81 60 -7 5 -17 10 -23
10 -5 0 -10 4 -10 9 0 5 -21 16 -46 25 -41 14 -50 14 -92 0 -66 -23 -83 -33
-118 -71 -30 -32 -74 -139 -74 -179 0 -11 -4 -24 -10 -30 -5 -5 -16 -45 -25
-89 -9 -44 -20 -96 -25 -115 -5 -19 -19 -80 -31 -135 -12 -55 -25 -104 -29
-110 -13 -19 -43 -110 -65 -195 l-22 -85 -69 -25 c-85 -31 -95 -37 -88 -55 3
-8 1 -29 -5 -47 -6 -18 -13 -71 -16 -118 -3 -47 -8 -97 -11 -112 -5 -27 -6
-28 -41 -13 -19 8 -45 15 -57 15 -12 0 -26 4 -32 9 -7 8 -221 71 -240 71 -3 0
-4 6 -2 13 4 24 -32 77 -58 83 -36 9 -100 -12 -119 -39 -25 -35 -19 -82 16
-122 40 -45 95 -50 125 -11 10 14 21 23 26 20 14 -9 142 -56 158 -58 8 -1 26
-8 38 -15 13 -7 26 -10 29 -7 3 3 15 0 27 -7 11 -6 43 -18 70 -27 l49 -15 3
-118 3 -117 -29 0 c-16 0 -32 -4 -35 -10 -3 -5 -17 -10 -30 -10 -13 0 -26 -4
-29 -9 -4 -5 -30 -12 -59 -16 -28 -4 -68 -10 -87 -15 -93 -22 -87 -22 -109 14
-36 58 -121 74 -159 31 -24 -28 -28 -65 -11 -113 22 -64 96 -77 149 -27 17 16
30 35 30 42 0 8 13 13 33 14 17 0 41 2 52 3 11 2 49 6 85 10 83 10 89 11 123
19 73 18 75 18 82 -11 4 -15 9 -43 11 -63 12 -97 74 -254 142 -356 35 -53 49
-62 68 -43 6 6 42 7 92 3 l83 -6 44 -61 c39 -53 81 -92 183 -173 l23 -18 -21
-50 c-12 -28 -31 -77 -42 -110 -11 -33 -22 -67 -25 -75 -3 -8 -7 -19 -8 -25
-1 -11 -40 -100 -55 -127 -15 -26 -12 -61 6 -86 15 -21 15 -25 0 -41 -9 -10
-16 -23 -16 -29 0 -12 -12 -16 -36 -13 -17 2 -25 -28 -14 -49 8 -14 5 -28 -11
-54 -21 -36 -53 -116 -71 -176 -6 -19 -13 -42 -16 -50 -3 -8 -7 -26 -9 -39 -2
-14 -8 -32 -14 -42 -5 -10 -9 -30 -9 -44 0 -14 -4 -34 -9 -43 -9 -17 -18 -96
-27 -229 l-4 -73 1445 0 1446 0 -7 23 c-3 12 -17 54 -31 92 -53 151 -74 218
-70 228 3 9 67 -88 67 -103 0 -7 17 -44 41 -90 22 -40 46 -98 52 -122 7 -25
12 -28 52 -28 52 0 54 7 25 68 -11 22 -22 49 -23 59 -2 10 -7 25 -10 33 -3 8
-18 54 -32 103 -14 48 -30 87 -36 87 -5 0 -9 9 -9 20 0 10 -4 29 -9 42 -13 31
-24 62 -25 68 -3 12 -66 158 -80 185 -9 17 -16 37 -16 46 0 9 -11 21 -24 27
-37 17 -66 45 -66 64 0 9 -5 20 -10 23 -8 5 -7 11 1 21 9 11 -4 50 -57 181
-70 176 -82 205 -108 265 -9 20 -16 44 -16 55 0 10 35 54 78 99 l77 81 80 7
c177 16 189 22 222 102 51 124 94 272 105 366 11 90 13 96 32 92 41 -10 195
-34 203 -33 4 1 32 1 61 0 45 -1 54 -4 62 -25 24 -64 113 -87 156 -41 50 54
40 135 -20 163 -41 20 -111 -8 -133 -53 -13 -28 -20 -32 -37 -26 -12 5 -43 11
-71 15 -42 6 -148 32 -217 53 -20 6 -22 22 -9 73 6 19 13 69 16 110 3 41 7 74
8 75 1 0 18 7 37 16 40 18 90 34 138 44 17 4 32 11 32 16 0 6 6 9 13 8 6 -1
23 2 37 8 59 24 68 24 84 1 26 -37 81 -30 122 15 23 24 34 47 34 66 0 40 -42
87 -84 95 -38 7 -86 -10 -86 -31 0 -7 -4 -13 -9 -13 -5 0 -12 -13 -16 -30 -5
-24 -13 -30 -43 -36 -43 -7 -152 -40 -198 -59 -41 -17 -67 -13 -69 11 -1 10
-6 60 -10 109 -5 50 -9 95 -10 101 0 6 -6 23 -14 37 -14 27 -44 41 -158 78
-85 27 -68 -6 -158 313 -123 437 -219 662 -335 789 -48 52 -51 54 -87 47 -54
-11 -88 -26 -141 -62 -123 -84 -216 -213 -340 -470 -15 -32 -31 -57 -37 -58
-5 0 -23 7 -39 15 -15 8 -36 15 -45 15 -9 0 -22 5 -28 11 -17 17 -125 35 -218
38 -44 1 -81 4 -82 5 -2 1 -5 61 -9 132 l-6 131 27 17 c55 36 83 150 49 202
-19 28 -74 54 -113 53 -14 0 -44 -10 -65 -22z m117 -66 c18 -18 10 -63 -16
-88 -31 -32 -72 -26 -81 12 -4 14 -11 25 -16 25 -12 0 -2 29 18 52 16 19 76
18 95 -1z m970 -170 c-3 -63 -46 -67 -68 -7 -11 32 5 48 45 44 22 -3 25 -8 23
-37z m-1904 -45 c10 -11 9 -21 -4 -45 -13 -27 -19 -30 -35 -21 -25 13 -43 47
-36 66 7 18 60 18 75 0z m1971 -102 c12 -19 20 -37 17 -40 -3 -3 6 -22 19 -41
13 -20 24 -45 24 -57 0 -12 9 -36 20 -54 11 -17 25 -53 31 -80 7 -26 15 -51
19 -57 24 -36 45 -177 30 -205 -20 -38 -56 5 -65 78 -8 63 -60 228 -97 308
-10 23 -20 50 -23 60 -2 11 -11 36 -20 58 -29 69 7 93 45 30z m-1779 -64 c86
-73 189 -178 189 -193 0 -7 -6 -21 -13 -32 -13 -16 -23 -9 -135 100 -123 120
-145 150 -121 166 18 11 19 11 80 -41z m948 -156 c25 -8 53 -14 63 -14 10 0
27 -9 38 -20 20 -20 20 -20 -7 -77 -14 -32 -29 -69 -33 -83 -5 -19 -15 -26
-45 -31 -21 -3 -52 -3 -69 1 -17 4 -105 5 -196 3 l-165 -3 -22 42 c-37 73 -72
167 -65 171 12 7 194 28 262 30 106 3 192 -3 239 -19z m76 -338 c144 -8 416
-52 495 -80 25 -9 55 -16 67 -16 12 0 25 -4 28 -10 3 -5 15 -10 26 -10 10 0
38 -8 62 -19 23 -10 58 -24 77 -31 19 -7 61 -24 93 -39 51 -23 57 -29 53 -50
-2 -14 2 -41 9 -62 23 -65 30 -149 30 -364 -1 -165 -4 -221 -17 -260 -9 -27
-19 -76 -22 -109 -7 -63 -62 -262 -102 -366 -14 -36 -30 -77 -36 -92 -6 -16
-16 -28 -22 -28 -7 0 -51 -16 -99 -35 -48 -19 -98 -35 -111 -35 -14 0 -27 -4
-30 -9 -3 -5 -23 -11 -43 -15 -21 -3 -65 -10 -98 -16 -69 -11 -215 -29 -295
-35 -57 -4 -281 -8 -290 -5 -3 1 -48 3 -100 5 -84 2 -156 8 -255 21 -16 2 -52
6 -79 9 -28 3 -79 12 -115 20 -37 8 -79 16 -96 19 -43 6 -77 14 -190 48 -55
17 -109 32 -120 35 -11 3 -25 10 -32 15 -6 5 -24 8 -40 6 -26 -3 -31 3 -63 67
-20 39 -44 93 -54 120 -10 28 -24 64 -31 80 -17 40 -50 140 -63 190 -6 22 -15
58 -21 80 -42 157 -57 400 -34 562 7 54 14 116 16 138 2 36 6 42 47 62 25 12
99 40 165 62 392 129 800 176 1290 147z m1259 -301 c38 -14 71 -26 72 -28 2
-3 12 -102 19 -192 10 -133 12 -350 3 -435 -10 -111 -31 -201 -75 -330 -41
-120 -54 -142 -84 -147 -13 -2 -27 -7 -33 -12 -6 -5 -39 -12 -73 -16 -52 -6
-63 -4 -63 8 0 8 7 20 16 28 17 14 56 85 60 108 2 8 7 17 12 20 21 14 59 116
92 251 31 125 29 448 -4 626 -2 10 -7 39 -11 64 -3 25 -9 53 -11 63 -7 22 -2
22 80 -8z m-3035 -90 c-11 -79 -1 -292 18 -405 3 -19 8 -57 10 -85 3 -27 9
-55 14 -60 4 -6 8 -20 8 -30 0 -34 17 -107 38 -165 11 -30 25 -73 32 -95 12
-38 23 -66 52 -127 7 -16 10 -30 8 -32 -2 -2 -31 -6 -65 -10 l-61 -7 -32 58
c-17 32 -35 65 -40 73 -37 64 -78 201 -86 285 -3 22 -7 60 -9 85 -13 109 -17
370 -7 370 6 0 11 18 11 41 0 22 7 72 16 110 15 64 18 70 45 76 16 3 33 11 36
17 12 18 19 -44 12 -99z m3629 -88 c3 -24 0 -27 -27 -27 -24 0 -31 4 -31 20 0
19 27 42 45 36 6 -1 11 -15 13 -29z m-4245 9 c8 -21 -16 -48 -36 -40 -17 6
-23 35 -10 47 11 12 41 7 46 -7z m4237 -504 c0 -10 -6 -27 -14 -37 -13 -18
-14 -18 -21 4 -4 13 -2 28 5 36 17 20 30 19 30 -3z m-4251 -6 c13 -16 4 -49
-12 -43 -17 5 -28 57 -12 57 7 0 18 -6 24 -14z m3151 -884 c13 -15 62 -108 66
-122 0 -3 6 -18 12 -33 7 -16 12 -33 12 -38 0 -5 4 -9 10 -9 16 0 23 -46 10
-69 -17 -34 -35 -25 -63 32 -36 74 -88 229 -83 244 7 18 19 16 36 -5z m144
-507 c8 -46 7 -50 -20 -72 -16 -12 -33 -23 -38 -23 -6 0 -20 -9 -32 -21 l-22
-21 -12 56 c-6 31 -12 59 -12 63 0 3 20 17 43 31 24 13 48 28 54 33 18 17 30
3 39 -46z m-1975 -5 c5 0 36 -12 69 -26 l59 -27 2 -65 c1 -36 4 -69 6 -73 3
-4 7 -20 9 -36 2 -15 7 -40 11 -56 9 -32 8 -32 -106 25 l-76 38 -16 60 c-10
33 -17 90 -17 126 l0 66 25 -16 c13 -9 29 -16 34 -16z m2141 -122 c25 -27 25
-49 0 -79 l-20 -24 -19 25 c-30 38 -36 72 -15 87 24 18 30 17 54 -9z m-548
-60 c26 -29 48 -56 48 -60 0 -4 -16 -12 -35 -19 -19 -7 -35 -17 -35 -21 0 -4
-11 -8 -24 -8 -14 0 -28 -4 -31 -10 -3 -5 -19 -10 -35 -10 -22 0 -44 15 -93
63 l-64 62 101 26 c55 15 105 27 111 28 5 0 31 -23 57 -51z m-998 2 c14 -5 44
-10 68 -11 61 -2 78 -8 78 -28 0 -14 22 -103 48 -195 5 -18 0 -18 -89 -13 -52
4 -98 6 -104 7 -5 0 -11 21 -13 48 -3 46 -24 149 -37 185 -8 20 9 22 49 7z"/>
<path d="M2441 2988 c-10 -3 -45 -6 -77 -4 -33 1 -81 -2 -109 -7 -77 -12 -217
-28 -247 -28 -16 0 -28 -3 -28 -8 0 -4 -16 -8 -35 -9 -19 -1 -43 -5 -53 -10
-9 -5 -66 -22 -127 -36 -60 -15 -119 -31 -130 -37 -12 -6 -27 -11 -35 -13 -8
-1 -29 -10 -47 -19 -18 -10 -36 -16 -40 -15 -4 1 -27 -6 -50 -17 -35 -15 -44
-25 -49 -52 -9 -49 -10 -345 -2 -432 14 -137 96 -424 154 -539 13 -26 24 -56
24 -67 1 -28 29 -58 70 -75 19 -7 38 -19 42 -26 5 -7 23 -12 40 -12 18 0 53
-7 78 -16 44 -15 116 -34 155 -41 11 -2 49 -10 85 -19 56 -13 120 -23 255 -41
17 -3 46 -7 65 -9 118 -17 419 -23 605 -11 189 12 415 61 547 117 45 19 48 24
69 87 12 36 24 70 27 76 3 5 7 16 8 25 0 8 7 35 14 60 8 25 14 48 16 53 1 4 2
8 3 10 1 1 11 34 22 72 20 71 28 110 51 265 12 84 18 325 8 345 -2 6 -5 24 -6
40 0 17 -5 53 -9 80 -11 64 -12 67 -13 85 -1 8 -17 21 -34 29 -18 7 -53 23
-78 35 -25 11 -55 22 -67 23 -12 1 -37 8 -55 16 -89 39 -374 97 -548 113 -36
3 -78 8 -95 11 -45 8 -383 9 -404 1z m603 -136 c37 -41 -27 -117 -70 -81 -30
25 -36 49 -19 75 19 29 64 32 89 6z m269 -63 c33 -5 64 -12 70 -16 6 -4 27 -8
47 -10 19 -2 39 -8 45 -14 5 -5 24 -9 42 -9 18 0 33 -4 33 -9 0 -6 12 -16 28
-23 20 -10 28 -22 30 -46 4 -37 -10 -41 -80 -19 -24 8 -83 26 -133 42 -134 41
-196 66 -202 82 -8 21 18 45 41 38 12 -4 47 -11 79 -16z m-1218 -176 c205 -72
222 -369 32 -555 -162 -159 -392 -124 -472 74 -42 103 -36 201 17 297 87 158
270 237 423 184z m1233 -13 c154 -59 251 -211 236 -369 -2 -29 -11 -66 -19
-82 -8 -15 -15 -35 -15 -42 0 -26 -84 -105 -134 -127 -80 -34 -184 -26 -256
19 -49 30 -120 93 -120 106 0 7 -4 15 -9 17 -5 2 -23 32 -42 68 -30 60 -33 73
-33 160 -1 86 2 100 27 146 70 126 207 165 365 104z m-700 -492 c4 -35 -21
-54 -42 -33 -21 22 -20 52 2 58 28 7 37 2 40 -25z m440 -205 c18 -39 15 -103
-7 -139 -16 -27 -27 -32 -73 -38 -29 -3 -64 -4 -78 -1 -14 2 -43 7 -64 9 -21
3 -46 12 -55 20 -9 7 -27 17 -41 21 -29 9 -74 38 -112 73 -16 15 -28 20 -28
13 0 -17 -90 -102 -101 -95 -5 3 -9 1 -9 -4 0 -12 -104 -40 -172 -45 -41 -4
-66 -1 -95 13 -21 10 -45 20 -54 23 -21 7 -49 67 -49 104 0 34 16 53 43 53 17
0 19 -5 14 -40 -4 -32 -1 -41 17 -53 84 -55 244 -26 336 62 51 49 76 51 133
13 23 -15 56 -34 72 -42 17 -8 32 -17 35 -20 3 -3 28 -13 56 -23 57 -20 145
-21 172 -1 15 11 15 16 0 62 -18 57 -16 62 21 62 18 0 30 -8 39 -27z"/>
<path d="M1935 2593 c-47 -12 -102 -44 -135 -77 -90 -90 -114 -144 -115 -256
0 -75 4 -92 30 -143 24 -48 40 -64 80 -87 73 -39 109 -42 183 -13 34 14 62 29
62 34 0 5 5 9 10 9 29 0 120 135 139 206 37 143 3 262 -90 308 -33 16 -132 28
-164 19z m105 -78 c93 -30 120 -110 83 -237 -29 -97 -142 -200 -221 -201 -61
-1 -88 11 -114 51 -50 74 -51 178 -3 265 23 43 95 99 152 118 50 16 64 17 103
4z"/>
<path d="M3145 2591 c-77 -21 -99 -39 -137 -112 -17 -32 -19 -53 -17 -122 4
-74 9 -92 44 -161 47 -93 105 -149 185 -182 68 -28 99 -25 175 17 100 55 144
212 95 341 -22 59 -39 85 -97 144 -60 61 -173 95 -248 75z m123 -85 c55 -19
119 -77 147 -135 33 -66 39 -179 12 -209 -9 -10 -17 -22 -17 -26 0 -4 -11 -19
-24 -33 -20 -22 -33 -26 -80 -26 -60 0 -109 25 -168 85 -61 63 -101 202 -76
268 13 34 58 80 79 80 10 0 21 4 24 10 6 10 49 4 103 -14z"/>
</g>
</svg>
